<?xml version="1.0" encoding="utf-8"?>
<!-- Generator: Adobe Illustrator 22.1.0, SVG Export Plug-In . SVG Version: 6.00 Build 0)  -->
<svg version="1.1" id="Слой_1" xmlns="http://www.w3.org/2000/svg" xmlns:xlink="http://www.w3.org/1999/xlink" x="0px" y="0px"
	 viewBox="0 0 504 512" style="enable-background:new 0 0 504 512;" xml:space="preserve">
<style type="text/css">
	.st0{fill:#FFFFFF;}
</style>
<path class="st0" d="M82.8,177.6c-5.3-1.3-7.8-6.4-7.8-16.3c0-17.8,0-35.5,0-53.3c0-10.4,2.8-15.9,8.7-16.9
	c9.4-1.7,13.6,1.5,15.8,12.2c7.2-9,16.7-8.7,25.3-12C159,91.2,193.2,91,227.4,91c14.2,0,28.3,0.3,42.5,0.4
	c8.9,4.5,16.8,12,25.5,17.1h35.5c25.7-0.1,50.9,5.6,75.5,16.1c7,3,14.1,6,22.6,9.7c-32.8,15.2-64.5,27.4-98,25.6
	c-11.9,0-23.8,0-35.6,0c-8.4,5.9-16.4,13-25.3,17.3c-1.3,0.2-2.6,0.5-3.8,0.5c-46.1,0-92.2,0-138.2,0c-1.1,0-2.2-0.2-3.3-0.3
	c-8.7-2.5-17.7-3.4-25.2-11.3C96.9,176.9,92.6,179.9,82.8,177.6z M99.5,287.4c7.1,8.2,15.9,8.8,24.3,11.2c1.5,1.4,3.2,0.9,4.9,0.9
	c37.4,0,74.9,0,112.3,0c1.6,0,3.3,0.5,4.9-0.8c9-4.1,16.9-11.5,25.4-17.1c11.8,0.9,23.6,1,35.3-0.1c0.5,0.2,1.1,0.5,1.6,0.5
	c24.6-0.6,48.8-5.5,72.3-15.6c7.1-3,14.2-6.2,21.6-9.4c-1.6-3.6-3.5-3.9-5.2-4.6c-10.8-4.3-21.5-9.1-32.4-12.9
	c-19-6.6-38.3-9.8-57.9-9.1c-11.8-1.1-23.6-1-35.4-0.1c-8.5-5.6-16.4-13-25.4-17.1c-1.3-0.3-2.5-0.8-3.8-0.8c-38,0-76,0-113.9,0
	c-1.5,0-3-0.4-4.3,0.9c-8.4,2.4-17.2,3-24.3,11.2c-2.4-10.7-6.6-13.8-16-11.9c-5.8,1.2-8.5,6.2-8.5,16.3c0,18,0,36.1,0,54.1
	c0,10.1,2.7,15.1,8.5,16.3C92.9,301.2,97.1,298.1,99.5,287.4z M99.5,408.7c6.9,8.5,15.8,8.7,24.1,11.5c3.4,1.7,6.9,0.8,10.4,0.8
	c29.1,0,58.2-0.2,87.2-0.3c8.5-5.7,16.9-11.4,25.4-17.1c11.9,0,23.7,0,35.6,0c33.3,0.3,65.2-10.4,97.7-26.2
	c-5.4-2.4-9.7-4.3-14.1-6.2c-27.2-11.9-54.8-20.5-83.6-19.2c-11.9,0-23.8,0-35.7,0c-8.4-5.9-16.4-12.7-25.3-17.3
	c-25.7-0.1-51.4-0.3-77.1-0.4c-6.8,0-13.6,0.3-20.4,0.5c-8.4,2.6-17.2,3.3-24.4,11.1c-2.5-10.7-6.9-13.8-16.7-11.4
	c-5.3,1.3-7.8,6.4-7.8,16.3c0,17.8,0,35.5,0,53.3c0,10.4,2.8,15.9,8.7,16.9C93.1,422.6,97.3,419.4,99.5,408.7z"/>
</svg>
