<?xml version="1.0" encoding="utf-8"?>
<!-- Generator: Adobe Illustrator 22.1.0, SVG Export Plug-In . SVG Version: 6.00 Build 0)  -->
<svg version="1.1" id="Слой_1" xmlns="http://www.w3.org/2000/svg" xmlns:xlink="http://www.w3.org/1999/xlink" x="0px" y="0px"
	 viewBox="0 0 504 512" style="enable-background:new 0 0 504 512;" xml:space="preserve">
<style type="text/css">
	.st0{fill:#FFFFFF;}
</style>
<path class="st0" d="M253.6,117c0.8,0.9,1.8,1.8,2.4,2.8c6.5,10.6,12.7,21.4,19.6,31.8c13.3,20.2,27.3,40,40.5,60.3
	c10.7,16.5,20.4,33.7,27.5,52.2c5.3,13.6,8.3,27.5,6.6,42.1c-2,16.8-7.5,32.3-17.2,46.2c-12.7,18-29.5,30.6-50.4,37.5
	c-15,4.9-30.4,6.2-46,3.6c-24.3-3.9-44.4-15.4-60.2-34.1c-12.1-14.3-19.2-30.8-22.1-49.3c-2.5-16.2,0.4-31.5,6.2-46.4
	c7.3-18.7,17-36.2,27.9-52.9c15.7-24.1,32.1-47.7,48.1-71.6c4.1-6.1,7.5-12.7,11.4-19.1c0.8-1.2,2.1-2.2,3.1-3.2
	C251.8,117,252.7,117,253.6,117z"/>
</svg>
