<?xml version="1.0" encoding="utf-8"?>
<!-- Generator: Adobe Illustrator 22.1.0, SVG Export Plug-In . SVG Version: 6.00 Build 0)  -->
<svg version="1.1" id="Слой_1" xmlns="http://www.w3.org/2000/svg" xmlns:xlink="http://www.w3.org/1999/xlink" x="0px" y="0px"
	 viewBox="0 0 504 512" style="enable-background:new 0 0 504 512;" xml:space="preserve">
<style type="text/css">
	.st0{fill:#FFFFFF;}
</style>
<path class="st0" d="M338.6,399.8c-24.1,13.7-49.9,20.9-77.3,22.3c-35.9,1.9-69.2-7.1-100.5-24.8c18.5-31.3,37-62.5,55.3-93.5
	c10.5,6.2,22.8,9.8,35.9,9.8c12.1,0,23.4-3,33.3-8.4c15.6,27.7,31.2,55.3,46.8,83C334.2,392,336.4,395.7,338.6,399.8z M423.4,197.4
	c-7.1-26.9-19.9-50.8-38.3-71.7c-11.5-13-24.4-24.3-39.3-33.2c-2.7-1.6-2.7-1.6-4.3,1.1c-6.8,11.5-13.5,22.9-20.4,34.4
	c-10.8,18.2-21.6,36.4-32.5,54.6c20.3,12.4,33.9,34.8,33.9,60.3c0,0.7,0,1.4,0,2c35.5,0.5,71.2,0.9,107,1.4c0-0.9,0.1-1.3,0.1-1.8
	C429.4,228.6,427.5,212.8,423.4,197.4z M164.4,89.6c-0.7,0.4-1.3,0.6-1.8,0.9c-15.9,9.8-30.4,21.3-42.9,35.2
	c-16.2,18-28.3,38.5-36.1,61.5c-5.8,17.2-9.1,34.8-9.3,53c0,2.7,0,2.7,2.7,2.7c18.9,0.1,37.8,0.2,56.7,0.3
	c15.9,0.1,31.8,0.1,47.6,0.1V243c0-26.3,14.4-49.3,35.7-61.4C199.5,150.9,182,120.3,164.4,89.6z M252,205c-20.9,0-37.9,16.9-38,37.9
	c-0.1,20.6,17,37.8,37.7,38c21,0.2,38.1-16.9,38.2-38C290,222,273.1,205,252,205z"/>
</svg>
