<?xml version="1.0" encoding="utf-8"?>
<!-- Generator: Adobe Illustrator 22.1.0, SVG Export Plug-In . SVG Version: 6.00 Build 0)  -->
<svg version="1.1" id="Слой_1" xmlns="http://www.w3.org/2000/svg" xmlns:xlink="http://www.w3.org/1999/xlink" x="0px" y="0px"
	 viewBox="0 0 504 512" style="enable-background:new 0 0 504 512;" xml:space="preserve">
<style type="text/css">
	.st0{fill:#FFFFFF;}
</style>
<g>
	<g>
		<path class="st0" d="M239,108.5c7.9,6.4,16.1,12.5,23.7,19.1c20.3,17.6,38.5,37.1,54.4,58.8c14.9,20.5,27.5,42.3,35.1,66.5
			c2.7,8.5,3.5,17.7,4.8,26.6c2.4,15.8,1.5,31.4-2.8,46.9c-5,18.3-14.1,34.2-27.6,47.6c-14.1,14-31,23.1-50.4,27.5
			c-4.2,0.9-8.5,1.4-12.6,2.1c5.2-2.1,10.7-3.8,15.8-6.5c17.7-9.5,28.8-30.7,26.6-50.7c-0.9-7.8-1.7-15.7-3.5-23.3
			c-2.3-10.3-8-19.3-13.5-28.2c-7-11.4-23.8-32.5-31.5-39.6c-0.5,0.8-1,1.5-1.5,2.3c-9,15.4-19.8,29.5-31.6,42.9
			c-6.3,7.1-12.1,14.7-17.4,22.5c-9,13.3-10.6,28.1-7.8,43.7c1.7,9.3,4.7,18,12,24.3c3.9,3.3,8.6,5.7,13,8.3c1.6,1,3.5,1.4,5.2,2.5
			c-3.7-0.9-7.4-1.5-11-2.6c-20-5.9-37.4-15.9-51-32.1c-10.5-12.5-17.3-26.8-19.9-42.9c-2.7-16.3-2.7-32.6,1-48.7
			c4.1-17.7,13-33.1,25-46.5c8.3-9.2,17.5-17.6,26.4-26.2c17.2-16.4,29.4-35.6,35.6-58.6c2.7-10.2,4-20.6,3-31.1
			c-0.1-1.3-0.2-2.7-0.2-4C238.5,108.8,238.8,108.7,239,108.5z"/>
	</g>
</g>
</svg>
