<?xml version="1.0" encoding="utf-8"?>
<!-- Generator: Adobe Illustrator 22.1.0, SVG Export Plug-In . SVG Version: 6.00 Build 0)  -->
<svg version="1.1" id="Слой_1" xmlns="http://www.w3.org/2000/svg" xmlns:xlink="http://www.w3.org/1999/xlink" x="0px" y="0px"
	 viewBox="0 0 504 512" style="enable-background:new 0 0 504 512;" xml:space="preserve">
<style type="text/css">
	.st0{fill:#FFFFFF;}
</style>
<path class="st0" d="M89.7,423.9c50-6.2,110-19.6,162.3-47.3c52.2,27.7,112.2,41,162.3,47.3c-18.1-2.3-69.8-28.5-84.8-39.8
	c-13.5-10.1-26.6-20.7-39-31.7c38.8-29.2,69.3-69.4,81.4-124.6c10.7-48.5-12.5-110.8-33.9-136.3c-0.3-0.4-3.6-3.6-3.9-3.4
	c0,0,0,0-0.2,9.7C332.3,191,300,259.2,252,313.9c-48-54.7-80.3-122.9-81.9-216.1c-0.2-9.7-0.2-9.7-0.2-9.7c-0.3-0.3-3.6,3-3.9,3.4
	c-21.4,25.5-44.6,87.7-33.9,136.3c12.1,55.2,42.6,95.3,81.4,124.6c-12.5,11.1-25.5,21.6-39,31.7C159.5,395.4,107.8,421.6,89.7,423.9
	z"/>
</svg>
