<?xml version="1.0" encoding="utf-8"?>
<!-- Generator: Adobe Illustrator 22.1.0, SVG Export Plug-In . SVG Version: 6.00 Build 0)  -->
<svg version="1.1" id="Слой_1" xmlns="http://www.w3.org/2000/svg" xmlns:xlink="http://www.w3.org/1999/xlink" x="0px" y="0px"
	 viewBox="0 0 504 512" style="enable-background:new 0 0 504 512;" xml:space="preserve">
<style type="text/css">
	.st0{fill:#FFFFFF;}
</style>
<path class="st0" d="M277.2,263.7C254,286.9,230.9,310,207.9,333c-11.9-13.1-10-40.4,4.4-57.6C228.7,255.8,256.6,250.6,277.2,263.7z
	 M227.4,352.9c16.4,12.1,43.7,8.7,60.7-8.1c17.2-17,20.9-44.2,8.6-61.4C273.5,306.5,250.4,329.7,227.4,352.9z M359,189.3v236.1H145
	V189.7h63.9v-21.2h0v-9.7h-20.7v-42.2h20.7v-30h85.9v30h21.3v42.2h-21.3v9.7h0.1v20.8H359z M329.2,309c0-44.7-33-77.9-77.3-77.8
	c-44.5,0.2-77.3,33.4-77,78.1c0.3,42.2,34.8,76.2,77.3,76.2C294.7,385.5,329.1,351.2,329.2,309z"/>
</svg>
