<?xml version="1.0" encoding="utf-8"?>
<!-- Generator: Adobe Illustrator 22.1.0, SVG Export Plug-In . SVG Version: 6.00 Build 0)  -->
<svg version="1.1" id="Слой_1" xmlns="http://www.w3.org/2000/svg" xmlns:xlink="http://www.w3.org/1999/xlink" x="0px" y="0px"
	 viewBox="0 0 504 512" style="enable-background:new 0 0 504 512;" xml:space="preserve">
<style type="text/css">
	.st0{fill:#FFFFFF;}
</style>
<g>
	<path class="st0" d="M424.3,247.8c-23.1,23.1-46.2,46.2-69.2,69.2c-1,1-2,1.9-2.7,2.5l-59.8-59.8c-8.8,8.8-14.6,14.6-14.8,14.8
		c-76.6,76.5-75.9,75.5-152.5,152.1c-6.5,6.5-9.8,6.5-16.1,0.1c-9.4-9.4-18.8-18.7-28.1-28.1c-5.7-5.7-5.7-9.3-0.1-14.9
		c77.1-77.2,77-76.7,154.2-153.9c0.1-0.1,5.6-5.6,13.8-13.8L189,156.2c0.5-0.6,1.5-1.6,2.6-2.7c23.2-23.2,46.4-46.4,69.5-69.6
		c1-1,1.9-2.3,2.8-3.5h0.9c3.2,3.3,6.4,6.6,9.6,9.8c16.7,16.7,33.4,33.4,50.1,50.1c6.9-6.9,11.3-11.3,11.5-11.5
		c1.5-1.4,3.3-3.3,5.2-4.9c3.4-2.8,7.4-3,10.6,0.2c11,10.8,22,21.7,32.7,32.8c3.2,3.3,2.9,7,0.1,10.6c-1.6,1.9-3.3,3.7-4.7,5.3
		c-0.3,0.1-4.7,4.5-11.6,11.3l55.9,55.9C428.2,244,428.2,244,424.3,247.8z"/>
</g>
</svg>
