<?xml version="1.0" encoding="utf-8"?>
<!-- Generator: Adobe Illustrator 22.1.0, SVG Export Plug-In . SVG Version: 6.00 Build 0)  -->
<svg version="1.1" id="Слой_1" xmlns="http://www.w3.org/2000/svg" xmlns:xlink="http://www.w3.org/1999/xlink" x="0px" y="0px"
	 viewBox="0 0 504 512" style="enable-background:new 0 0 504 512;" xml:space="preserve">
<style type="text/css">
	.st0{fill:#FFFFFF;}
</style>
<g>
	<path class="st0" d="M267.4,142.1c-0.5-0.2-1-0.5-1.5-0.7c0-18.1,0-36.2,0-54.3c-9.6,0-18.7,0-28.2,0c0,18.4,0,36.4,0,54.3
		c-0.4,0.2-0.7,0.5-1.1,0.7c-11.5-11.6-23.1-23.3-34.4-34.7c-6.6,6.6-13,13-20.4,20.5c1.2,0.8,2.9,1.4,4.1,2.6
		c15.9,15.8,31.7,31.8,47.7,47.5c3,2.9,4.4,5.8,4.3,10.1c-0.3,17.8-0.1,35.6-0.1,53.3c0,1.7,0,3.3,0,5.4c-2.2-0.7-3.8-1.1-5.4-1.6
		c-17.3-5.6-34.6-11.3-52-16.8c-3.1-1-4.9-2.7-6.3-5.5c-10.4-20.6-20.9-41.1-31.3-61.6c-0.7-1.4-1.6-2.8-2.4-4.3
		c-8.5,4.3-16.5,8.4-24.8,12.7c7.6,14.9,14.9,29.4,22.9,45c-18.5-6-35.7-11.5-53.1-17.1c-3,9.2-5.8,17.7-8.6,26.6
		c17.6,5.8,34.9,11.4,53.1,17.3c-15.6,8-30.3,15.5-45.1,23.1c4.4,8.6,8.5,16.6,12.7,24.8c2-0.9,3.5-1.6,5-2.4
		c20.5-10.5,41-21,61.7-31.3c2.1-1,5.1-1.3,7.4-0.6c13.3,4,26.4,8.4,39.6,12.7c5.9,1.9,11.7,3.8,17.9,5.9c-1.1,1.7-1.8,2.9-2.7,4
		c-10.9,15-21.7,30.1-32.8,44.9c-1.5,2-4.3,3.7-6.7,4.1c-14.6,2.6-29.2,4.7-43.8,7c-9.8,1.5-19.6,3.1-29.6,4.7
		c1.5,9.4,2.9,18.2,4.4,27.6c16.6-2.6,32.7-5.1,49.9-7.8c-11.4,15.7-22,30.4-32.8,45.2c7.9,5.7,15.2,11,22.7,16.4
		c10.9-15,21.5-29.5,32.8-45.1c2.8,17.4,5.4,33.4,8,50c9.3-1.5,18.1-2.9,27.4-4.4c-0.3-2.3-0.4-4.3-0.7-6.2
		c-3.5-22.5-7.2-44.9-10.5-67.4c-0.4-2.4,0.4-5.6,1.9-7.6c10.6-15,21.5-29.8,32.3-44.7c0.9-1.3,2-2.5,3.2-4.1
		c12.1,16.6,23.8,32.5,35.2,48.7c1.4,2,2.3,5.2,1.9,7.6c-2,14.7-4.5,29.2-6.8,43.9c-1.6,9.8-3.1,19.6-4.7,29.8
		c9.5,1.5,18.5,2.9,27.6,4.3c2.7-16.7,5.2-32.7,8-49.9c11.5,15.7,22.1,30.4,32.9,45.2c7.8-5.7,15.1-11,22.7-16.5
		c-10.8-14.9-21.5-29.6-32.8-45.2c17.3,2.7,33.5,5.2,50,7.8c1.5-9.6,2.9-18.4,4.3-27.5c-2.1-0.4-3.7-0.7-5.4-1
		c-22.9-3.6-45.9-7.2-68.7-11c-2.1-0.4-4.6-1.9-5.9-3.7c-11.1-15-22.1-30.2-33.1-45.3c-0.8-1.1-1.4-2.2-2.3-3.6
		c1.9-0.7,3.3-1.3,4.7-1.7c17.5-5.7,34.9-11.4,52.5-16.9c2.3-0.7,5.6-0.4,7.8,0.6c18.8,9.3,37.5,19,56.3,28.5
		c3.3,1.7,6.6,3.3,10.1,5c4.3-8.5,8.4-16.4,12.7-24.9c-15-7.7-29.6-15.2-45-23c18.1-5.9,35.5-11.6,53.1-17.3
		c-3-9.2-5.9-17.8-8.8-26.6c-17.8,5.7-34.8,11.2-53.1,17.1c8-15.8,15.4-30.3,22.9-45.1c-8.5-4.3-16.6-8.5-24.9-12.7
		c-1.1,2-1.9,3.4-2.7,5c-10.5,20.5-20.8,41.1-31.5,61.6c-1.1,2-3.4,4-5.6,4.8c-11.9,4.2-23.9,8-35.9,11.9
		c-7.1,2.3-14.2,4.5-21.7,6.9c0-2.1,0-3.6,0-5.2c0-18.4,0.1-36.8-0.1-55.2c0-3.1,0.9-5.2,3.1-7.3c16.4-16.2,32.7-32.6,49-48.9
		c1.2-1.2,2.3-2.4,3.3-3.5c-6.7-6.7-13.1-13.1-19.5-19.4C290.5,119,279,130.6,267.4,142.1z"/>
	<path class="st0" d="M267.4,142.1c11.5-11.6,23.1-23.1,34.4-34.6c6.4,6.3,12.7,12.7,19.5,19.4c-1,1.1-2.1,2.3-3.3,3.5
		c-16.3,16.3-32.6,32.7-49,48.9c-2.1,2.1-3.1,4.2-3.1,7.3c0.1,18.4,0.1,36.8,0.1,55.2c0,1.5,0,3.1,0,5.2c7.5-2.4,14.6-4.6,21.7-6.9
		c12-3.9,24-7.7,35.9-11.9c2.2-0.8,4.6-2.7,5.6-4.8c10.6-20.4,21-41,31.5-61.6c0.8-1.5,1.6-3,2.7-5c8.2,4.2,16.3,8.3,24.9,12.7
		c-7.5,14.8-14.9,29.4-22.9,45.1c18.2-5.9,35.3-11.4,53.1-17.1c2.9,8.8,5.7,17.4,8.8,26.6c-17.6,5.7-34.9,11.4-53.1,17.3
		c15.4,7.9,30,15.3,45,23c-4.3,8.4-8.4,16.4-12.7,24.9c-3.6-1.8-6.9-3.4-10.1-5c-18.7-9.5-37.4-19.2-56.3-28.5
		c-2.2-1.1-5.5-1.4-7.8-0.6c-17.5,5.4-35,11.2-52.5,16.9c-1.4,0.5-2.9,1-4.7,1.7c0.9,1.4,1.5,2.6,2.3,3.6
		c11,15.1,21.9,30.3,33.1,45.3c1.3,1.8,3.7,3.3,5.9,3.7c22.9,3.8,45.8,7.4,68.7,11c1.7,0.3,3.3,0.6,5.4,1
		c-1.4,9.1-2.8,17.9-4.3,27.5c-16.5-2.6-32.7-5.1-50-7.8c11.3,15.6,22,30.3,32.8,45.2c-7.6,5.5-14.9,10.8-22.7,16.5
		c-10.7-14.8-21.4-29.4-32.9-45.2c-2.8,17.2-5.3,33.2-8,49.9c-9.2-1.4-18.1-2.8-27.6-4.3c1.6-10.2,3.1-20,4.7-29.8
		c2.3-14.6,4.8-29.2,6.8-43.9c0.3-2.4-0.5-5.6-1.9-7.6c-11.5-16.1-23.2-32.1-35.2-48.7c-1.2,1.5-2.2,2.8-3.2,4.1
		c-10.8,14.9-21.7,29.7-32.3,44.7c-1.4,2-2.2,5.2-1.9,7.6c3.3,22.5,7,44.9,10.5,67.4c0.3,1.9,0.5,3.9,0.7,6.2
		c-9.3,1.5-18.1,2.9-27.4,4.4c-2.6-16.5-5.2-32.6-8-50c-11.3,15.5-21.9,30.1-32.8,45.1c-7.5-5.4-14.8-10.7-22.7-16.4
		c10.7-14.8,21.4-29.5,32.8-45.2c-17.2,2.7-33.3,5.2-49.9,7.8c-1.5-9.4-2.9-18.2-4.4-27.6c10-1.6,19.8-3.2,29.6-4.7
		c14.6-2.3,29.3-4.5,43.8-7c2.4-0.4,5.2-2.1,6.7-4.1c11.1-14.9,21.9-29.9,32.8-44.9c0.8-1.1,1.5-2.3,2.7-4c-6.2-2-12.1-4-17.9-5.9
		c-13.2-4.3-26.3-8.7-39.6-12.7c-2.2-0.7-5.3-0.4-7.4,0.6c-20.6,10.3-41.1,20.8-61.7,31.3c-1.5,0.8-3,1.5-5,2.4
		c-4.2-8.3-8.3-16.2-12.7-24.8c14.8-7.6,29.4-15.1,45.1-23.1c-18.2-5.9-35.5-11.6-53.1-17.3c2.9-8.9,5.7-17.4,8.6-26.6
		c17.4,5.6,34.6,11.2,53.1,17.1c-7.9-15.6-15.3-30.1-22.9-45c8.3-4.3,16.3-8.3,24.8-12.7c0.8,1.5,1.7,2.9,2.4,4.3
		c10.5,20.5,21,41,31.3,61.6c1.4,2.8,3.2,4.5,6.3,5.5c17.4,5.5,34.7,11.2,52,16.8c1.6,0.5,3.2,1,5.4,1.6c0-2.1,0-3.7,0-5.4
		c0-17.8-0.1-35.6,0.1-53.3c0.1-4.3-1.3-7.2-4.3-10.1c-16-15.7-31.8-31.7-47.7-47.5c-1.2-1.2-2.9-1.9-4.1-2.6
		c7.5-7.5,13.8-13.8,20.4-20.5c11.3,11.4,22.8,23,34.4,34.7c0.4-0.2,0.7-0.5,1.1-0.7c0-18,0-36,0-54.3c9.5,0,18.6,0,28.2,0
		c0,18.1,0,36.2,0,54.3C266.4,141.7,266.9,141.9,267.4,142.1z"/>
</g>
</svg>
