<?xml version="1.0" encoding="utf-8"?>
<!-- Generator: Adobe Illustrator 22.1.0, SVG Export Plug-In . SVG Version: 6.00 Build 0)  -->
<svg version="1.1" id="Слой_1" xmlns="http://www.w3.org/2000/svg" xmlns:xlink="http://www.w3.org/1999/xlink" x="0px" y="0px"
	 viewBox="0 0 504 512" style="enable-background:new 0 0 504 512;" xml:space="preserve">
<style type="text/css">
	.st0{fill:#FFFFFF;}
</style>
<path class="st0" d="M210.2,420.6c-2.8-2-3.5-4.5-2.7-8.1c8.6-39.8,17.1-79.7,25.5-119.6c0.2-1,0.4-2.1,0.6-3.5c-1.5,0-2.8,0-4,0
	c-22.9,0-45.9,0-68.8,0c-2.7,0-5.2-0.2-6.6-3c-1.3-2.7,0-4.7,1.5-6.8c43.6-61.5,87.2-123,130.7-184.6c0.2-0.3,0.4-0.5,0.6-0.8
	c1.7-2.5,3.8-3.9,6.8-2.5c2.9,1.3,3.5,3.7,2.8,6.7c-8.6,40.1-17.1,80.2-25.6,120.2c-0.2,1.1-0.4,2.3-0.7,3.7c1.6,0,2.9,0,4.1,0
	c23,0,46.1,0,69.1,0.1c1.8,0,4.1,0.7,5.4,2c2.3,2.2,1.2,4.8-0.5,7.2c-12.8,18-25.5,36-38.3,54c-30.6,43.3-61.3,86.5-91.9,129.8
	c-1.3,1.8-2.9,3.4-4.3,5.1C212.7,420.6,211.4,420.6,210.2,420.6z"/>
</svg>
